<?xml version="1.0" encoding="UTF-8" standalone="no"?><!DOCTYPE svg PUBLIC "-//W3C//DTD SVG 1.1//EN" "http://www.w3.org/Graphics/SVG/1.1/DTD/svg11.dtd"><svg width="100%" height="100%" viewBox="0 0 4021 764" version="1.1" xmlns="http://www.w3.org/2000/svg" xmlns:xlink="http://www.w3.org/1999/xlink" xml:space="preserve" xmlns:serif="http://www.serif.com/" style="fill-rule:evenodd;clip-rule:evenodd;stroke-linejoin:round;stroke-miterlimit:2;"><g transform="matrix(4.16667,0,0,4.16667,-2389.58,-583.416)"><g transform="matrix(176.875,0,0,176.875,723.488,286.047)"><path d="M0.234,-0l0,-0.58l-0.2,0l-0,-0.12l0.536,-0l0,0.12l-0.206,0l0,0.58l-0.13,-0Z" style="fill:#2a5a7a;fill-rule:nonzero;"/></g><g transform="matrix(176.875,0,0,176.875,812.633,286.047)"><path d="M0.313,0.01c-0.053,0 -0.1,-0.012 -0.141,-0.036c-0.042,-0.023 -0.074,-0.056 -0.098,-0.097c-0.024,-0.041 -0.036,-0.088 -0.036,-0.141c-0,-0.053 0.012,-0.1 0.036,-0.141c0.024,-0.041 0.056,-0.074 0.098,-0.097c0.041,-0.024 0.088,-0.036 0.141,-0.036c0.052,-0 0.099,0.012 0.14,0.036c0.041,0.023 0.074,0.056 0.097,0.097c0.024,0.041 0.036,0.088 0.036,0.141c0,0.053 -0.012,0.1 -0.036,0.141c-0.023,0.041 -0.056,0.074 -0.097,0.097c-0.041,0.024 -0.088,0.036 -0.14,0.036Zm-0,-0.109c0.028,-0 0.054,-0.008 0.076,-0.022c0.023,-0.014 0.041,-0.034 0.053,-0.059c0.013,-0.025 0.019,-0.053 0.019,-0.084c0,-0.032 -0.006,-0.06 -0.019,-0.085c-0.012,-0.025 -0.03,-0.044 -0.053,-0.059c-0.022,-0.014 -0.048,-0.021 -0.076,-0.021c-0.029,0 -0.055,0.007 -0.078,0.022c-0.023,0.014 -0.04,0.034 -0.053,0.059c-0.013,0.024 -0.019,0.053 -0.019,0.084c-0,0.031 0.006,0.059 0.019,0.084c0.013,0.025 0.03,0.045 0.053,0.059c0.023,0.014 0.049,0.022 0.078,0.022Z" style="fill:#2a5a7a;fill-rule:nonzero;"/></g><g transform="matrix(176.875,0,0,176.875,919.466,286.047)"><path d="M0.196,-0l-0.177,-0.527l0.126,-0.001l0.118,0.376l-0.022,-0.002l0.128,-0.294l0.074,0l0.131,0.294l-0.026,0.003l0.119,-0.376l0.126,-0l-0.178,0.527l-0.088,-0l-0.135,-0.316l0.019,0.002l-0.128,0.314l-0.087,-0Z" style="fill:#2a5a7a;fill-rule:nonzero;"/></g><g transform="matrix(176.875,0,0,176.875,1063.09,286.047)"><path d="M0.072,-0l-0,-0.527l0.12,-0l0.002,0.108l-0.023,0.012c0.007,-0.024 0.02,-0.045 0.039,-0.065c0.019,-0.02 0.042,-0.036 0.069,-0.048c0.027,-0.012 0.054,-0.018 0.082,-0.018c0.04,-0 0.074,0.008 0.101,0.024c0.027,0.016 0.047,0.04 0.061,0.072c0.013,0.032 0.02,0.072 0.02,0.12l-0,0.322l-0.123,-0l-0,-0.313c-0,-0.027 -0.004,-0.049 -0.011,-0.067c-0.008,-0.018 -0.019,-0.031 -0.034,-0.039c-0.015,-0.008 -0.034,-0.012 -0.056,-0.011c-0.018,0 -0.035,0.003 -0.05,0.009c-0.015,0.006 -0.028,0.014 -0.039,0.024c-0.011,0.01 -0.019,0.022 -0.026,0.035c-0.006,0.014 -0.009,0.028 -0.009,0.044l-0,0.318l-0.123,-0Z" style="fill:#2a5a7a;fill-rule:nonzero;"/></g><g transform="matrix(176.875,0,0,176.875,1170.81,286.047)"><path d="M0.221,0.006c-0.032,-0 -0.059,-0.007 -0.082,-0.021c-0.023,-0.014 -0.039,-0.034 -0.049,-0.06c-0.01,-0.026 -0.012,-0.057 -0.005,-0.092l0.096,-0.479l0.096,-0l-0.096,0.477c-0.005,0.029 -0.002,0.051 0.008,0.068c0.01,0.017 0.03,0.026 0.059,0.026c0.013,-0 0.026,-0.002 0.04,-0.006c0.013,-0.005 0.025,-0.011 0.036,-0.019l0.02,0.073c-0.018,0.012 -0.038,0.021 -0.059,0.026c-0.022,0.004 -0.043,0.007 -0.064,0.007Zm-0.169,-0.457l0.015,-0.079l0.339,0l-0.016,0.079l-0.338,0Z" style="fill:#42b0d5;fill-rule:nonzero;"/></g><g transform="matrix(176.875,0,0,176.875,1244.56,286.047)"><path d="M0.039,-0l0.105,-0.53l0.092,0l-0.03,0.154l-0.01,-0.038c0.025,-0.045 0.056,-0.076 0.094,-0.094c0.038,-0.018 0.085,-0.027 0.141,-0.027l-0.018,0.093c-0.004,-0 -0.008,-0.001 -0.012,-0.001c-0.004,-0 -0.008,-0 -0.013,-0c-0.053,-0 -0.096,0.014 -0.131,0.043c-0.034,0.029 -0.057,0.074 -0.069,0.135l-0.053,0.265l-0.096,0Z" style="fill:#42b0d5;fill-rule:nonzero;"/></g><g transform="matrix(176.875,0,0,176.875,1314.96,286.047)"><path d="M0.292,0.006c-0.052,-0 -0.097,-0.01 -0.135,-0.029c-0.038,-0.019 -0.067,-0.045 -0.088,-0.08c-0.021,-0.034 -0.031,-0.074 -0.031,-0.121c0,-0.06 0.013,-0.113 0.039,-0.16c0.026,-0.047 0.062,-0.084 0.107,-0.111c0.045,-0.027 0.096,-0.04 0.153,-0.04c0.048,-0 0.09,0.009 0.125,0.027c0.035,0.019 0.063,0.045 0.082,0.079c0.02,0.034 0.03,0.075 0.03,0.123c0,0.012 -0,0.024 -0.002,0.036c-0.001,0.013 -0.003,0.024 -0.005,0.035l-0.459,-0l0.012,-0.07l0.401,-0l-0.039,0.024c0.006,-0.037 0.003,-0.069 -0.008,-0.095c-0.012,-0.025 -0.029,-0.045 -0.054,-0.058c-0.024,-0.014 -0.053,-0.021 -0.087,-0.021c-0.04,0 -0.075,0.01 -0.105,0.029c-0.03,0.019 -0.054,0.045 -0.071,0.079c-0.016,0.034 -0.025,0.073 -0.025,0.118c0,0.048 0.014,0.085 0.042,0.111c0.027,0.026 0.069,0.039 0.126,0.039c0.033,0 0.064,-0.005 0.093,-0.016c0.029,-0.011 0.052,-0.026 0.071,-0.044l0.041,0.069c-0.026,0.025 -0.057,0.044 -0.095,0.056c-0.038,0.013 -0.078,0.02 -0.118,0.02Z" style="fill:#42b0d5;fill-rule:nonzero;"/></g><g transform="matrix(176.875,0,0,176.875,1423.03,286.047)"><path d="M0.145,-0.134l0.02,-0.117l0.353,-0.279l0.135,0l-0.296,0.233l-0.051,0.038l-0.161,0.125Zm-0.106,0.134l0.148,-0.742l0.096,0l-0.148,0.742l-0.096,-0Zm0.409,-0l-0.158,-0.258l0.065,-0.073l0.204,0.331l-0.111,-0Z" style="fill:#42b0d5;fill-rule:nonzero;"/></g></g><path d="M1760,763.367l16.261,-37.777l0.175,11.958l-37.882,-84.581l20.649,0l21.244,50.114c0.624,1.328 1.291,3.033 2,5.116c0.711,2.081 1.3,4.114 1.766,6.1l-3.614,1.23c0.699,-1.844 1.418,-3.811 2.156,-5.901c0.74,-2.092 1.48,-4.258 2.219,-6.497l17.99,-50.162l20.88,0l-32.004,76.859l-13.127,33.541l-18.713,0Z" style="fill:#2a5a7a;fill-rule:nonzero;"/><path d="M1868.74,731.284c-7.685,0 -14.543,-1.73 -20.573,-5.191c-6.03,-3.462 -10.785,-8.192 -14.267,-14.191c-3.482,-5.999 -5.223,-12.858 -5.223,-20.578c0,-7.721 1.741,-14.58 5.223,-20.579c3.482,-5.999 8.237,-10.729 14.267,-14.189c6.03,-3.462 12.888,-5.193 20.573,-5.193c7.607,-0 14.42,1.731 20.44,5.193c6.022,3.46 10.768,8.19 14.239,14.189c3.473,5.999 5.209,12.858 5.209,20.579c0,7.72 -1.736,14.579 -5.209,20.578c-3.471,5.999 -8.217,10.729 -14.239,14.191c-6.02,3.461 -12.833,5.191 -20.44,5.191Zm0,-15.966c4.173,-0 7.905,-1.048 11.195,-3.145c3.291,-2.096 5.867,-4.954 7.73,-8.574c1.864,-3.622 2.757,-7.714 2.679,-12.275c0.078,-4.66 -0.815,-8.799 -2.679,-12.419c-1.863,-3.622 -4.439,-6.462 -7.73,-8.52c-3.29,-2.058 -7.022,-3.087 -11.195,-3.087c-4.194,-0 -7.955,1.048 -11.283,3.146c-3.329,2.097 -5.93,4.955 -7.805,8.575c-1.873,3.62 -2.771,7.721 -2.693,12.305c-0.078,4.561 0.82,8.653 2.693,12.275c1.875,3.62 4.476,6.478 7.805,8.574c3.328,2.097 7.089,3.145 11.283,3.145Z" style="fill:#2a5a7a;fill-rule:nonzero;"/><path d="M1951.26,731.314c-5.543,-0 -10.337,-1.254 -14.383,-3.762c-4.043,-2.508 -7.155,-6.061 -9.333,-10.66c-2.177,-4.6 -3.265,-10.099 -3.265,-16.497l-0,-47.428l17.99,0l-0,43.67c-0,3.997 0.635,7.441 1.907,10.332c1.271,2.891 3.11,5.112 5.516,6.665c2.407,1.551 5.317,2.326 8.732,2.326c2.542,0 4.865,-0.411 6.971,-1.235c2.107,-0.825 3.926,-1.984 5.459,-3.479c1.533,-1.495 2.736,-3.285 3.61,-5.371c0.873,-2.086 1.31,-4.341 1.31,-6.765l-0,-46.143l17.99,0l-0,76.859l-17.487,-0l-0.355,-15.983l3.22,-1.75c-1.147,3.617 -3.096,6.88 -5.847,9.787c-2.751,2.906 -6.023,5.205 -9.814,6.898c-3.792,1.69 -7.866,2.536 -12.221,2.536Z" style="fill:#2a5a7a;fill-rule:nonzero;"/><path d="M2014.7,729.826l-0,-76.859l17.662,0l0.355,24.448l-2.497,-5.476c1.109,-3.854 2.966,-7.342 5.571,-10.463c2.607,-3.124 5.637,-5.59 9.09,-7.399c3.454,-1.809 7.059,-2.714 10.814,-2.714c1.673,-0 3.267,0.141 4.783,0.424c1.518,0.281 2.773,0.616 3.767,1.005l-4.799,19.687c-1.127,-0.525 -2.465,-0.983 -4.013,-1.372c-1.548,-0.39 -3.112,-0.585 -4.692,-0.585c-2.445,-0 -4.761,0.461 -6.945,1.383c-2.184,0.922 -4.087,2.208 -5.708,3.858c-1.619,1.649 -2.905,3.572 -3.855,5.767c-0.951,2.194 -1.427,4.61 -1.427,7.251l0,41.045l-18.106,-0Z" style="fill:#2a5a7a;fill-rule:nonzero;"/><rect x="2119.2" y="621.909" width="17.99" height="107.917" style="fill:#2a5a7a;fill-rule:nonzero;"/><path d="M2192.05,731.284c-7.685,0 -14.543,-1.73 -20.574,-5.191c-6.029,-3.462 -10.785,-8.192 -14.267,-14.191c-3.481,-5.999 -5.222,-12.858 -5.222,-20.578c-0,-7.721 1.741,-14.58 5.222,-20.579c3.482,-5.999 8.238,-10.729 14.267,-14.189c6.031,-3.462 12.889,-5.193 20.574,-5.193c7.606,-0 14.419,1.731 20.439,5.193c6.022,3.46 10.769,8.19 14.24,14.189c3.472,5.999 5.209,12.858 5.209,20.579c-0,7.72 -1.737,14.579 -5.209,20.578c-3.471,5.999 -8.218,10.729 -14.24,14.191c-6.02,3.461 -12.833,5.191 -20.439,5.191Zm-0,-15.966c4.173,-0 7.905,-1.048 11.195,-3.145c3.29,-2.096 5.867,-4.954 7.729,-8.574c1.864,-3.622 2.757,-7.714 2.68,-12.275c0.077,-4.66 -0.816,-8.799 -2.68,-12.419c-1.862,-3.622 -4.439,-6.462 -7.729,-8.52c-3.29,-2.058 -7.022,-3.087 -11.195,-3.087c-4.194,-0 -7.956,1.048 -11.284,3.146c-3.328,2.097 -5.93,4.955 -7.804,8.575c-1.873,3.62 -2.771,7.721 -2.694,12.305c-0.077,4.561 0.821,8.653 2.694,12.275c1.874,3.62 4.476,6.478 7.804,8.574c3.328,2.097 7.09,3.145 11.284,3.145Z" style="fill:#2a5a7a;fill-rule:nonzero;"/><path d="M2280.95,731.284c-7.257,0 -13.74,-1.75 -19.448,-5.25c-5.709,-3.5 -10.222,-8.268 -13.538,-14.305c-3.316,-6.039 -4.974,-12.84 -4.974,-20.405c-0,-7.566 1.658,-14.367 4.974,-20.403c3.316,-6.039 7.829,-10.808 13.538,-14.308c5.708,-3.5 12.191,-5.25 19.448,-5.25c6.845,-0 13.097,1.321 18.755,3.962c5.66,2.642 10.028,6.276 13.103,10.902l-9.888,11.99c-1.456,-2.019 -3.301,-3.863 -5.534,-5.53c-2.232,-1.67 -4.62,-2.985 -7.164,-3.945c-2.543,-0.961 -5.069,-1.442 -7.577,-1.442c-4.311,-0 -8.142,1.039 -11.491,3.117c-3.348,2.077 -5.993,4.935 -7.934,8.575c-1.94,3.638 -2.91,7.739 -2.91,12.302c-0,4.542 1.004,8.614 3.012,12.216c2.008,3.6 4.706,6.468 8.094,8.604c3.388,2.134 7.169,3.201 11.345,3.201c2.586,0 5.054,-0.397 7.404,-1.191c2.35,-0.796 4.602,-1.985 6.758,-3.566c2.156,-1.583 4.155,-3.51 5.997,-5.779l9.858,12.02c-3.21,4.294 -7.722,7.782 -13.538,10.463c-5.813,2.682 -11.91,4.022 -18.29,4.022Z" style="fill:#2a5a7a;fill-rule:nonzero;"/><path d="M2355.62,731.255c-6.36,-0 -12.126,-1.745 -17.297,-5.235c-5.171,-3.49 -9.292,-8.254 -12.364,-14.291c-3.072,-6.039 -4.607,-12.879 -4.607,-20.522c-0,-7.739 1.55,-14.609 4.65,-20.608c3.101,-5.999 7.319,-10.704 12.654,-14.116c5.336,-3.413 11.359,-5.12 18.067,-5.12c3.887,-0 7.444,0.564 10.671,1.691c3.226,1.127 6.054,2.701 8.483,4.721c2.431,2.02 4.453,4.348 6.066,6.982c1.615,2.632 2.696,5.455 3.243,8.467l-3.89,-0.959l-0,-19.298l17.99,0l-0,76.859l-18.138,-0l-0,-18.407l4.124,-0.695c-0.662,2.664 -1.883,5.232 -3.662,7.702c-1.779,2.468 -4.009,4.655 -6.692,6.56c-2.681,1.905 -5.655,3.426 -8.921,4.564c-3.264,1.136 -6.723,1.705 -10.377,1.705Zm4.858,-15.933c4.213,0 7.915,-1.019 11.109,-3.058c3.193,-2.038 5.686,-4.873 7.48,-8.504c1.796,-3.63 2.694,-7.815 2.694,-12.553c-0,-4.662 -0.898,-8.794 -2.694,-12.395c-1.794,-3.602 -4.287,-6.422 -7.48,-8.459c-3.194,-2.038 -6.896,-3.058 -11.109,-3.058c-4.136,0 -7.777,1.02 -10.921,3.058c-3.145,2.037 -5.615,4.857 -7.411,8.459c-1.794,3.601 -2.691,7.733 -2.691,12.395c0,4.738 0.897,8.923 2.691,12.553c1.796,3.631 4.266,6.466 7.411,8.504c3.144,2.039 6.785,3.058 10.921,3.058Z" style="fill:#2a5a7a;fill-rule:nonzero;"/><rect x="2420.35" y="621.909" width="17.99" height="107.917" style="fill:#2a5a7a;fill-rule:nonzero;"/><path d="M2533.39,731.314c-6.882,-0 -13.02,-1.726 -18.414,-5.177c-5.394,-3.452 -9.661,-8.177 -12.799,-14.176c-3.139,-5.999 -4.708,-12.868 -4.708,-20.608c-0,-7.72 1.555,-14.584 4.664,-20.592c3.11,-6.01 7.352,-10.745 12.727,-14.205c5.376,-3.462 11.486,-5.193 18.329,-5.193c3.693,-0 7.259,0.578 10.698,1.734c3.441,1.154 6.531,2.737 9.27,4.749c2.74,2.011 4.922,4.236 6.546,6.676c1.624,2.44 2.496,4.933 2.616,7.481l-4.821,0.647l-0,-50.741l18.021,0l0,107.917l-17.397,-0l-0.476,-18.022l3.541,0.269c-0.099,2.373 -0.936,4.687 -2.511,6.943c-1.576,2.254 -3.642,4.314 -6.198,6.18c-2.557,1.864 -5.498,3.349 -8.823,4.457c-3.324,1.107 -6.746,1.661 -10.265,1.661Zm3.436,-15.238c4.214,0 7.917,-1.062 11.11,-3.187c3.194,-2.126 5.687,-5.042 7.481,-8.75c1.796,-3.708 2.694,-7.97 2.694,-12.786c-0,-4.817 -0.898,-9.084 -2.694,-12.801c-1.794,-3.717 -4.287,-6.634 -7.481,-8.75c-3.193,-2.116 -6.896,-3.174 -11.11,-3.174c-4.213,-0 -7.911,1.058 -11.095,3.174c-3.182,2.116 -5.672,5.033 -7.467,8.75c-1.794,3.717 -2.691,7.984 -2.691,12.801c-0,4.816 0.897,9.078 2.691,12.786c1.795,3.708 4.285,6.624 7.467,8.75c3.184,2.125 6.882,3.187 11.095,3.187Z" style="fill:#2a5a7a;fill-rule:nonzero;"/><path d="M2597.91,729.826l-0,-76.859l17.992,0l0,76.859l-17.992,-0Zm8.837,-93.213c-3.623,0 -6.434,-0.905 -8.431,-2.716c-1.998,-1.811 -2.997,-4.372 -2.997,-7.683c0,-3.077 1.023,-5.579 3.069,-7.506c2.047,-1.93 4.833,-2.894 8.359,-2.894c3.624,-0 6.435,0.906 8.433,2.718c1.997,1.811 2.996,4.371 2.996,7.682c0,3.077 -1.023,5.58 -3.069,7.508c-2.046,1.927 -4.833,2.891 -8.36,2.891Z" style="fill:#2a5a7a;fill-rule:nonzero;"/><path d="M2664.33,731.284c-6.833,0 -12.94,-1.152 -18.321,-3.457c-5.379,-2.306 -9.779,-5.597 -13.202,-9.873l11.632,-9.967c2.957,3.263 6.22,5.629 9.79,7.096c3.571,1.467 7.376,2.201 11.413,2.201c1.592,0 3.062,-0.189 4.409,-0.567c1.349,-0.378 2.514,-0.95 3.494,-1.716c0.979,-0.766 1.726,-1.672 2.24,-2.718c0.515,-1.049 0.772,-2.212 0.772,-3.491c-0,-2.311 -0.894,-4.155 -2.682,-5.533c-0.952,-0.621 -2.464,-1.32 -4.534,-2.096c-2.071,-0.777 -4.749,-1.592 -8.035,-2.448c-5.262,-1.359 -9.648,-2.923 -13.157,-4.691c-3.507,-1.768 -6.263,-3.78 -8.267,-6.034c-1.637,-1.907 -2.861,-4.007 -3.671,-6.303c-0.808,-2.297 -1.212,-4.837 -1.212,-7.622c0,-3.366 0.749,-6.43 2.247,-9.192c1.499,-2.763 3.563,-5.161 6.191,-7.194c2.628,-2.032 5.683,-3.593 9.165,-4.682c3.483,-1.089 7.16,-1.634 11.031,-1.634c3.835,-0 7.587,0.481 11.254,1.445c3.667,0.961 7.072,2.351 10.215,4.17c3.143,1.816 5.834,3.968 8.073,6.455l-9.91,10.965c-1.807,-1.749 -3.805,-3.313 -5.993,-4.692c-2.187,-1.381 -4.414,-2.465 -6.681,-3.252c-2.266,-0.788 -4.343,-1.182 -6.229,-1.182c-1.843,-0 -3.497,0.17 -4.963,0.51c-1.465,0.339 -2.691,0.853 -3.68,1.543c-0.989,0.688 -1.741,1.541 -2.256,2.559c-0.514,1.018 -0.77,2.167 -0.77,3.447c0.077,1.166 0.378,2.263 0.902,3.293c0.526,1.028 1.284,1.902 2.276,2.62c1.03,0.698 2.609,1.464 4.738,2.3c2.13,0.835 4.926,1.681 8.39,2.538c4.762,1.264 8.743,2.665 11.942,4.202c3.199,1.536 5.742,3.306 7.629,5.311c1.826,1.787 3.128,3.846 3.906,6.178c0.777,2.332 1.166,4.925 1.166,7.781c0,4.573 -1.299,8.655 -3.896,12.246c-2.598,3.589 -6.106,6.401 -10.525,8.435c-4.418,2.033 -9.381,3.049 -14.891,3.049Z" style="fill:#2a5a7a;fill-rule:nonzero;"/><path d="M2742.36,731.284c-7.256,0 -13.739,-1.75 -19.448,-5.25c-5.709,-3.5 -10.221,-8.268 -13.537,-14.305c-3.316,-6.039 -4.975,-12.84 -4.975,-20.405c0,-7.566 1.659,-14.367 4.975,-20.403c3.316,-6.039 7.828,-10.808 13.537,-14.308c5.709,-3.5 12.192,-5.25 19.448,-5.25c6.845,-0 13.097,1.321 18.756,3.962c5.66,2.642 10.028,6.276 13.102,10.902l-9.887,11.99c-1.457,-2.019 -3.302,-3.863 -5.535,-5.53c-2.231,-1.67 -4.619,-2.985 -7.164,-3.945c-2.543,-0.961 -5.068,-1.442 -7.576,-1.442c-4.311,-0 -8.142,1.039 -11.491,3.117c-3.349,2.077 -5.993,4.935 -7.935,8.575c-1.94,3.638 -2.91,7.739 -2.91,12.302c0,4.542 1.005,8.614 3.013,12.216c2.008,3.6 4.706,6.468 8.094,8.604c3.387,2.134 7.169,3.201 11.345,3.201c2.585,0 5.053,-0.397 7.403,-1.191c2.35,-0.796 4.603,-1.985 6.759,-3.566c2.155,-1.583 4.154,-3.51 5.997,-5.779l9.858,12.02c-3.21,4.294 -7.723,7.782 -13.538,10.463c-5.813,2.682 -11.91,4.022 -18.291,4.022Z" style="fill:#2a5a7a;fill-rule:nonzero;"/><path d="M2823.07,731.284c-7.685,0 -14.543,-1.73 -20.574,-5.191c-6.029,-3.462 -10.785,-8.192 -14.267,-14.191c-3.481,-5.999 -5.222,-12.858 -5.222,-20.578c-0,-7.721 1.741,-14.58 5.222,-20.579c3.482,-5.999 8.238,-10.729 14.267,-14.189c6.031,-3.462 12.889,-5.193 20.574,-5.193c7.606,-0 14.419,1.731 20.439,5.193c6.022,3.46 10.768,8.19 14.24,14.189c3.472,5.999 5.208,12.858 5.208,20.579c0,7.72 -1.736,14.579 -5.208,20.578c-3.472,5.999 -8.218,10.729 -14.24,14.191c-6.02,3.461 -12.833,5.191 -20.439,5.191Zm-0,-15.966c4.173,-0 7.904,-1.048 11.195,-3.145c3.29,-2.096 5.867,-4.954 7.729,-8.574c1.864,-3.622 2.757,-7.714 2.68,-12.275c0.077,-4.66 -0.816,-8.799 -2.68,-12.419c-1.862,-3.622 -4.439,-6.462 -7.729,-8.52c-3.291,-2.058 -7.022,-3.087 -11.195,-3.087c-4.194,-0 -7.956,1.048 -11.284,3.146c-3.328,2.097 -5.93,4.955 -7.804,8.575c-1.873,3.62 -2.771,7.721 -2.694,12.305c-0.077,4.561 0.821,8.653 2.694,12.275c1.874,3.62 4.476,6.478 7.804,8.574c3.328,2.097 7.09,3.145 11.284,3.145Z" style="fill:#2a5a7a;fill-rule:nonzero;"/><path d="M2901.36,729.826l-32.375,-76.859l19.603,0l21.879,57.49l-3.812,1.046l23.126,-58.536l19.022,0l-33.979,76.859l-13.464,-0Z" style="fill:#2a5a7a;fill-rule:nonzero;"/><path d="M2995.85,731.284c-8.112,0 -15.251,-1.691 -21.417,-5.074c-6.165,-3.385 -10.978,-8.018 -14.44,-13.9c-3.46,-5.884 -5.191,-12.647 -5.191,-20.289c0,-5.988 0.973,-11.462 2.917,-16.42c1.944,-4.958 4.652,-9.261 8.123,-12.906c3.471,-3.646 7.613,-6.466 12.426,-8.459c4.812,-1.993 10.048,-2.989 15.707,-2.989c5.116,-0 9.857,0.958 14.223,2.873c4.367,1.916 8.156,4.561 11.366,7.937c3.21,3.374 5.675,7.366 7.396,11.976c1.721,4.609 2.523,9.637 2.406,15.083l-0.145,6.357l-62.267,-0l-3.354,-12.343l50.502,-0l-2.306,2.568l-0,-3.323c-0.233,-2.93 -1.178,-5.545 -2.837,-7.845c-1.659,-2.3 -3.78,-4.11 -6.362,-5.43c-2.581,-1.32 -5.416,-1.98 -8.504,-1.98c-4.755,-0 -8.763,0.912 -12.024,2.736c-3.26,1.825 -5.73,4.484 -7.411,7.978c-1.678,3.494 -2.517,7.793 -2.517,12.897c-0,4.972 1.043,9.293 3.13,12.963c2.089,3.67 5.061,6.506 8.917,8.506c3.855,2 8.358,2.999 13.508,2.999c3.613,0 6.93,-0.577 9.948,-1.732c3.02,-1.154 6.277,-3.216 9.771,-6.186l8.802,12.368c-2.591,2.432 -5.574,4.504 -8.948,6.214c-3.374,1.711 -6.893,3.041 -10.557,3.992c-3.664,0.953 -7.285,1.429 -10.862,1.429Z" style="fill:#2a5a7a;fill-rule:nonzero;"/><path d="M3045.16,729.826l0,-76.859l17.662,0l0.356,24.448l-2.498,-5.476c1.109,-3.854 2.966,-7.342 5.571,-10.463c2.607,-3.124 5.637,-5.59 9.09,-7.399c3.454,-1.809 7.059,-2.714 10.814,-2.714c1.673,-0 3.267,0.141 4.783,0.424c1.518,0.281 2.773,0.616 3.767,1.005l-4.799,19.687c-1.127,-0.525 -2.465,-0.983 -4.013,-1.372c-1.548,-0.39 -3.112,-0.585 -4.691,-0.585c-2.446,-0 -4.761,0.461 -6.946,1.383c-2.184,0.922 -4.087,2.208 -5.708,3.858c-1.619,1.649 -2.904,3.572 -3.855,5.767c-0.951,2.194 -1.427,4.61 -1.427,7.251l0,41.045l-18.106,-0Z" style="fill:#2a5a7a;fill-rule:nonzero;"/><path d="M3118.29,763.367l16.261,-37.777l0.175,11.958l-37.882,-84.581l20.649,0l21.243,50.114c0.625,1.328 1.292,3.033 2.001,5.116c0.711,2.081 1.3,4.114 1.766,6.1l-3.614,1.23c0.699,-1.844 1.417,-3.811 2.156,-5.901c0.74,-2.092 1.479,-4.258 2.219,-6.497l17.99,-50.162l20.879,0l-32.003,76.859l-13.128,33.541l-18.712,0Z" style="fill:#2a5a7a;fill-rule:nonzero;"/><path d="M3269.26,731.284c-7.256,0 -13.739,-1.75 -19.448,-5.25c-5.709,-3.5 -10.221,-8.268 -13.537,-14.305c-3.317,-6.039 -4.975,-12.84 -4.975,-20.405c0,-7.566 1.658,-14.367 4.975,-20.403c3.316,-6.039 7.828,-10.808 13.537,-14.308c5.709,-3.5 12.192,-5.25 19.448,-5.25c6.845,-0 13.097,1.321 18.756,3.962c5.66,2.642 10.027,6.276 13.102,10.902l-9.887,11.99c-1.457,-2.019 -3.302,-3.863 -5.535,-5.53c-2.231,-1.67 -4.619,-2.985 -7.164,-3.945c-2.543,-0.961 -5.068,-1.442 -7.576,-1.442c-4.312,-0 -8.142,1.039 -11.492,3.117c-3.348,2.077 -5.992,4.935 -7.934,8.575c-1.94,3.638 -2.91,7.739 -2.91,12.302c0,4.542 1.004,8.614 3.013,12.216c2.008,3.6 4.706,6.468 8.093,8.604c3.388,2.134 7.17,3.201 11.346,3.201c2.585,0 5.053,-0.397 7.403,-1.191c2.35,-0.796 4.603,-1.985 6.759,-3.566c2.155,-1.583 4.154,-3.51 5.997,-5.779l9.857,12.02c-3.209,4.294 -7.722,7.782 -13.537,10.463c-5.814,2.682 -11.911,4.022 -18.291,4.022Z" style="fill:#2a5a7a;fill-rule:nonzero;"/><path d="M3349.97,731.284c-7.685,0 -14.543,-1.73 -20.574,-5.191c-6.03,-3.462 -10.785,-8.192 -14.267,-14.191c-3.482,-5.999 -5.223,-12.858 -5.223,-20.578c0,-7.721 1.741,-14.58 5.223,-20.579c3.482,-5.999 8.237,-10.729 14.267,-14.189c6.031,-3.462 12.889,-5.193 20.574,-5.193c7.606,-0 14.419,1.731 20.439,5.193c6.022,3.46 10.768,8.19 14.239,14.189c3.473,5.999 5.209,12.858 5.209,20.579c0,7.72 -1.736,14.579 -5.209,20.578c-3.471,5.999 -8.217,10.729 -14.239,14.191c-6.02,3.461 -12.833,5.191 -20.439,5.191Zm-0,-15.966c4.173,-0 7.904,-1.048 11.195,-3.145c3.29,-2.096 5.866,-4.954 7.729,-8.574c1.864,-3.622 2.757,-7.714 2.679,-12.275c0.078,-4.66 -0.815,-8.799 -2.679,-12.419c-1.863,-3.622 -4.439,-6.462 -7.729,-8.52c-3.291,-2.058 -7.022,-3.087 -11.195,-3.087c-4.195,-0 -7.956,1.048 -11.284,3.146c-3.329,2.097 -5.93,4.955 -7.805,8.575c-1.873,3.62 -2.77,7.721 -2.693,12.305c-0.077,4.561 0.82,8.653 2.693,12.275c1.875,3.62 4.476,6.478 7.805,8.574c3.328,2.097 7.089,3.145 11.284,3.145Z" style="fill:#2a5a7a;fill-rule:nonzero;"/><path d="M3405.57,729.826l-0,-76.859l17.661,0l0.237,15.502l-2.889,1.155c0.916,-2.528 2.245,-4.884 3.985,-7.068c1.741,-2.185 3.816,-4.092 6.226,-5.722c2.411,-1.632 4.985,-2.912 7.724,-3.842c2.741,-0.931 5.518,-1.397 8.333,-1.397c4.178,0 7.89,0.675 11.136,2.024c3.246,1.349 5.969,3.422 8.167,6.22c2.198,2.799 3.852,6.385 4.963,10.76l-2.778,-0.494l1.05,-2.391c1.149,-2.295 2.685,-4.414 4.61,-6.357c1.926,-1.944 4.105,-3.655 6.535,-5.131c2.431,-1.477 4.988,-2.618 7.67,-3.423c2.683,-0.805 5.307,-1.208 7.873,-1.208c5.874,0 10.747,1.177 14.617,3.53c3.873,2.353 6.786,5.907 8.741,10.662c1.957,4.753 2.935,10.638 2.935,17.655l0,46.384l-18.108,-0l-0,-45.181c-0,-3.919 -0.514,-7.131 -1.543,-9.634c-1.028,-2.504 -2.567,-4.377 -4.616,-5.619c-2.048,-1.243 -4.653,-1.864 -7.816,-1.864c-2.466,-0 -4.771,0.412 -6.916,1.237c-2.143,0.825 -3.996,1.985 -5.557,3.479c-1.562,1.494 -2.78,3.22 -3.653,5.18c-0.874,1.959 -1.31,4.123 -1.31,6.492l-0,45.91l-18.106,-0l-0,-45.414c-0,-3.609 -0.534,-6.665 -1.602,-9.169c-1.068,-2.503 -2.626,-4.415 -4.674,-5.735c-2.048,-1.32 -4.537,-1.98 -7.469,-1.98c-2.464,-0 -4.75,0.412 -6.857,1.237c-2.105,0.825 -3.939,1.965 -5.5,3.42c-1.562,1.455 -2.779,3.163 -3.653,5.123c-0.873,1.959 -1.31,4.084 -1.31,6.375l-0,46.143l-18.106,-0Z" style="fill:#2a5a7a;fill-rule:nonzero;"/><path d="M3542.31,761.909l0,-108.942l17.662,0l0.326,17.441l-3.076,-1.313c0.603,-3.017 2.255,-5.857 4.958,-8.52c2.702,-2.664 6.032,-4.826 9.99,-6.487c3.957,-1.662 8.086,-2.493 12.386,-2.493c6.803,0 12.843,1.707 18.12,5.12c5.279,3.412 9.449,8.099 12.51,14.06c3.062,5.959 4.594,12.809 4.594,20.549c-0,7.642 -1.517,14.463 -4.551,20.462c-3.032,5.999 -7.197,10.724 -12.496,14.175c-5.297,3.452 -11.29,5.177 -17.979,5.177c-4.452,0 -8.734,-0.874 -12.844,-2.622c-4.111,-1.75 -7.595,-4.03 -10.452,-6.839c-2.858,-2.81 -4.647,-5.781 -5.367,-8.914l4.355,-2.041l-0,51.187l-18.136,0Zm38.808,-46.703c4.135,0 7.793,-1.019 10.976,-3.058c3.184,-2.039 5.693,-4.853 7.526,-8.445c1.835,-3.592 2.753,-7.719 2.753,-12.379c-0,-4.663 -0.898,-8.775 -2.693,-12.337c-1.796,-3.564 -4.286,-6.364 -7.47,-8.401c-3.182,-2.039 -6.88,-3.058 -11.092,-3.058c-4.213,-0 -7.916,0.999 -11.109,2.998c-3.193,1.999 -5.707,4.8 -7.542,8.402c-1.834,3.601 -2.75,7.733 -2.75,12.396c-0,4.66 0.916,8.787 2.75,12.379c1.835,3.592 4.349,6.406 7.542,8.445c3.193,2.039 6.896,3.058 11.109,3.058Z" style="fill:#2a5a7a;fill-rule:nonzero;"/><path d="M3664.92,731.255c-6.361,-0 -12.126,-1.745 -17.297,-5.235c-5.171,-3.49 -9.293,-8.254 -12.364,-14.291c-3.072,-6.039 -4.608,-12.879 -4.608,-20.522c0,-7.739 1.55,-14.609 4.651,-20.608c3.1,-5.999 7.318,-10.704 12.653,-14.116c5.337,-3.413 11.359,-5.12 18.068,-5.12c3.887,-0 7.444,0.564 10.671,1.691c3.226,1.127 6.054,2.701 8.483,4.721c2.431,2.02 4.452,4.348 6.066,6.982c1.615,2.632 2.695,5.455 3.242,8.467l-3.889,-0.959l-0,-19.298l17.989,0l0,76.859l-18.138,-0l0,-18.407l4.125,-0.695c-0.663,2.664 -1.883,5.232 -3.662,7.702c-1.779,2.468 -4.01,4.655 -6.692,6.56c-2.682,1.905 -5.655,3.426 -8.921,4.564c-3.265,1.136 -6.724,1.705 -10.377,1.705Zm4.858,-15.933c4.212,0 7.915,-1.019 11.108,-3.058c3.193,-2.038 5.687,-4.873 7.481,-8.504c1.796,-3.63 2.693,-7.815 2.693,-12.553c0,-4.662 -0.897,-8.794 -2.693,-12.395c-1.794,-3.602 -4.288,-6.422 -7.481,-8.459c-3.193,-2.038 -6.896,-3.058 -11.108,-3.058c-4.137,0 -7.777,1.02 -10.922,3.058c-3.144,2.037 -5.614,4.857 -7.41,8.459c-1.794,3.601 -2.691,7.733 -2.691,12.395c0,4.738 0.897,8.923 2.691,12.553c1.796,3.631 4.266,6.466 7.41,8.504c3.145,2.039 6.785,3.058 10.922,3.058Z" style="fill:#2a5a7a;fill-rule:nonzero;"/><path d="M3729.41,729.826l0,-76.859l17.546,0l0.296,15.75l-3.368,1.75c0.992,-3.462 2.893,-6.627 5.701,-9.495c2.811,-2.868 6.16,-5.186 10.049,-6.954c3.889,-1.77 7.905,-2.655 12.047,-2.655c5.834,-0 10.715,1.157 14.643,3.473c3.93,2.313 6.882,5.809 8.855,10.486c1.975,4.676 2.962,10.523 2.962,17.541l0,46.963l-17.992,-0l-0,-45.646c-0,-3.919 -0.534,-7.169 -1.602,-9.75c-1.066,-2.581 -2.706,-4.473 -4.92,-5.676c-2.213,-1.205 -4.94,-1.73 -8.18,-1.575c-2.62,0 -5.022,0.412 -7.205,1.237c-2.183,0.825 -4.08,1.985 -5.69,3.48c-1.61,1.493 -2.872,3.22 -3.785,5.179c-0.911,1.96 -1.367,4.085 -1.367,6.376l0,46.375l-17.99,-0Z" style="fill:#2a5a7a;fill-rule:nonzero;"/><path d="M3820.28,729.826l-0,-76.859l17.992,0l0,76.859l-17.992,-0Zm8.837,-93.213c-3.623,0 -6.434,-0.905 -8.431,-2.716c-1.998,-1.811 -2.997,-4.372 -2.997,-7.683c0,-3.077 1.023,-5.579 3.069,-7.506c2.047,-1.93 4.833,-2.894 8.359,-2.894c3.624,-0 6.435,0.906 8.433,2.718c1.997,1.811 2.996,4.371 2.996,7.682c0,3.077 -1.023,5.58 -3.069,7.508c-2.046,1.927 -4.833,2.891 -8.36,2.891Z" style="fill:#2a5a7a;fill-rule:nonzero;"/><path d="M3896.11,731.284c-7.685,0 -14.543,-1.73 -20.573,-5.191c-6.03,-3.462 -10.785,-8.192 -14.267,-14.191c-3.482,-5.999 -5.223,-12.858 -5.223,-20.578c0,-7.721 1.741,-14.58 5.223,-20.579c3.482,-5.999 8.237,-10.729 14.267,-14.189c6.03,-3.462 12.888,-5.193 20.573,-5.193c7.607,-0 14.42,1.731 20.44,5.193c6.022,3.46 10.768,8.19 14.239,14.189c3.473,5.999 5.209,12.858 5.209,20.579c0,7.72 -1.736,14.579 -5.209,20.578c-3.471,5.999 -8.217,10.729 -14.239,14.191c-6.02,3.461 -12.833,5.191 -20.44,5.191Zm0,-15.966c4.173,-0 7.905,-1.048 11.195,-3.145c3.291,-2.096 5.867,-4.954 7.73,-8.574c1.864,-3.622 2.757,-7.714 2.679,-12.275c0.078,-4.66 -0.815,-8.799 -2.679,-12.419c-1.863,-3.622 -4.439,-6.462 -7.73,-8.52c-3.29,-2.058 -7.022,-3.087 -11.195,-3.087c-4.194,-0 -7.955,1.048 -11.283,3.146c-3.329,2.097 -5.93,4.955 -7.805,8.575c-1.873,3.62 -2.771,7.721 -2.693,12.305c-0.078,4.561 0.82,8.653 2.693,12.275c1.875,3.62 4.476,6.478 7.805,8.574c3.328,2.097 7.089,3.145 11.283,3.145Z" style="fill:#2a5a7a;fill-rule:nonzero;"/><path d="M3951.95,729.826l-0,-76.859l17.546,0l0.296,15.75l-3.368,1.75c0.992,-3.462 2.892,-6.627 5.701,-9.495c2.81,-2.868 6.16,-5.186 10.049,-6.954c3.889,-1.77 7.905,-2.655 12.047,-2.655c5.833,-0 10.714,1.157 14.643,3.473c3.93,2.313 6.881,5.809 8.855,10.486c1.974,4.676 2.962,10.523 2.962,17.541l-0,46.963l-17.992,-0l-0,-45.646c-0,-3.919 -0.534,-7.169 -1.602,-9.75c-1.067,-2.581 -2.707,-4.473 -4.92,-5.676c-2.213,-1.205 -4.94,-1.73 -8.18,-1.575c-2.621,0 -5.022,0.412 -7.205,1.237c-2.183,0.825 -4.08,1.985 -5.69,3.48c-1.61,1.493 -2.872,3.22 -3.785,5.179c-0.911,1.96 -1.367,4.085 -1.367,6.376l-0,46.375l-17.99,-0Z" style="fill:#2a5a7a;fill-rule:nonzero;"/><rect x="-0" y="50.579" width="276.368" height="276.368" style="fill:#fdb750;"/><path d="M276.368,339.446l-0,207.276c-38.133,-0 -69.092,30.959 -69.092,69.092l-207.276,-0l0,-276.368l276.368,0Z" style="fill:#42b0d5;"/><path d="M619.98,138.184l-138.183,239.341l-239.342,-138.184l138.184,-239.341l239.341,138.184Z" style="fill:#ff6f61;"/><path d="M565.235,339.446l0,276.368l-207.276,-0c0,-38.133 -30.959,-69.092 -69.091,-69.092l-0,-207.276l276.367,0Z" style="fill:#6bbf59;"/></svg>