<?xml version="1.0" encoding="UTF-8" standalone="no"?><!DOCTYPE svg PUBLIC "-//W3C//DTD SVG 1.1//EN" "http://www.w3.org/Graphics/SVG/1.1/DTD/svg11.dtd"><svg width="100%" height="100%" viewBox="0 0 620 616" version="1.1" xmlns="http://www.w3.org/2000/svg" xmlns:xlink="http://www.w3.org/1999/xlink" xml:space="preserve" xmlns:serif="http://www.serif.com/" style="fill-rule:evenodd;clip-rule:evenodd;stroke-linejoin:round;stroke-miterlimit:2;"><rect x="-0" y="50.579" width="276.368" height="276.368" style="fill:#fdb750;"/><path d="M276.368,339.446l-0,207.276c-38.133,-0 -69.092,30.959 -69.092,69.092l-207.276,-0l0,-276.368l276.368,0Z" style="fill:#42b0d5;"/><path d="M619.98,138.184l-138.183,239.341l-239.342,-138.184l138.184,-239.341l239.341,138.184Z" style="fill:#ff6f61;"/><path d="M122.161,271.242l0,-136.61l-47.149,-0l-0,-28.349l126.344,0l-0,28.349l-48.564,-0l0,136.61l-30.631,-0Z" style="fill:#fff;fill-rule:nonzero;"/><path d="M565.235,339.446l0,276.368l-207.276,-0c0,-38.133 -30.959,-69.092 -69.091,-69.092l-0,-207.276l276.367,0Z" style="fill:#6bbf59;"/><path d="M430.485,555.188c-8.125,-0 -15.148,-1.734 -21.069,-5.203c-5.918,-3.468 -10.175,-8.486 -12.769,-15.052c-2.595,-6.567 -2.999,-14.332 -1.212,-23.297l22.266,-111.564l29.457,0l-22.266,111.328c-1.058,5.904 -0.484,10.664 1.723,14.28c2.207,3.613 6.417,5.42 12.63,5.42c2.747,-0 5.57,-0.446 8.469,-1.337c2.901,-0.891 5.578,-2.15 8.03,-3.778l5.104,21.662c-4.46,2.946 -9.339,4.939 -14.637,5.98c-5.294,1.041 -10.537,1.561 -15.726,1.561Zm-43.508,-103.865l4.699,-23.495l83.782,-0l-4.698,23.495l-83.783,0Z" style="fill:#fff;fill-rule:nonzero;"/></svg>